<svg width="800" height="800" viewBox="0 0 800 800" xmlns="http://www.w3.org/2000/svg">
  <defs>
    <linearGradient id="core" x1="0" y1="0" x2="1" y2="1">
      <stop offset="0%" stop-color="#F59E0B"/>
      <stop offset="100%" stop-color="#EF4444"/>
    </linearGradient>
  </defs>

  <g transform="translate(400, 310)">
    <path d="M-70,-66 L-120,0 L-70,66" fill="none" stroke="#7C3AED" stroke-width="5" stroke-linecap="round" stroke-linejoin="round"/>
    <path d="M70,-66 L120,0 L70,66" fill="none" stroke="#D97706" stroke-width="5" stroke-linecap="round" stroke-linejoin="round"/>
    <ellipse cx="0" cy="0" rx="76" ry="30" fill="none" stroke="#7C3AED" stroke-width="1.8" opacity=".55" transform="rotate(-20)"/>
    <ellipse cx="0" cy="0" rx="76" ry="30" fill="none" stroke="#8B5CF6" stroke-width="1.8" opacity=".4" transform="rotate(20)"/>
    <circle cx="0" cy="0" r="13" fill="url(#core)"/>
    <circle cx="0" cy="0" r="6.5" fill="#FDE68A" opacity=".85"/>
    <circle cx="66" cy="-28" r="5.5" fill="#0891B2"/>
    <circle cx="-66" cy="28" r="5" fill="#DC2626"/>
    <circle cx="38" cy="28" r="4.5" fill="#8B5CF6"/>
    <circle cx="92" cy="-15" r="2" fill="#06B6D4" opacity=".7"/>
    <circle cx="-92" cy="15" r="2" fill="#EF4444" opacity=".6"/>
    <circle cx="-40" cy="-55" r="1.5" fill="#A78BFA" opacity=".5"/>
    <circle cx="50" cy="55" r="1.5" fill="#F59E0B" opacity=".5"/>
  </g>

  <text x="400" y="460" text-anchor="middle" font-family="Inter, sans-serif" font-size="44" font-weight="500" fill="#1C1917" letter-spacing="-0.5">accelerator</text>
  <text x="400" y="496" text-anchor="middle" font-family="Inter, sans-serif" font-size="13" font-weight="600" fill="#78716C" letter-spacing="4.5">ATOMIC INNOVATION</text>
</svg>
